<svg width="390" height="844" viewBox="0 0 390 844" fill="none" xmlns="http://www.w3.org/2000/svg">
  <!-- 背景 -->
  <rect width="390" height="844" fill="#F5F7FA" />
  
  <!-- 顶部状态栏 -->
  <rect width="390" height="44" fill="white" />
  <text x="24" y="24" font-family="sans-serif" font-size="14" font-weight="600" fill="#333333" dominant-baseline="middle">9:41</text>
  <text x="366" y="24" font-family="sans-serif" font-size="14" font-weight="600" fill="#333333" text-anchor="end" dominant-baseline="middle">100%</text>
  
  <!-- 顶部导航栏 -->
  <rect y="44" width="390" height="56" fill="white" />
  <text x="24" y="72" font-family="sans-serif" font-size="20" font-weight="700" fill="#333333" dominant-baseline="middle">首页</text>
  <circle cx="354" cy="72" r="18" fill="#F5F7FA" />
  <path d="M348 72 L360 72 M354 66 L354 78" stroke="#4A6CF7" stroke-width="2" stroke-linecap="round" />
  
  <!-- 财务健康评分卡片 -->
  <g filter="url(#filter0_d)">
    <rect x="24" y="120" width="342" height="120" rx="16" fill="url(#paint0_linear)" />
    <text x="48" y="148" font-family="sans-serif" font-size="16" font-weight="600" fill="white">财务健康评分</text>
    <text x="318" y="148" font-family="sans-serif" font-size="16" font-weight="600" fill="white" text-anchor="end">优秀</text>
    
    <!-- 评分仪表盘 -->
    <circle cx="195" cy="190" r="30" stroke="white" stroke-width="6" stroke-opacity="0.3" />
    <path d="M195 160 A30 30 0 0 1 221 205" stroke="white" stroke-width="6" stroke-linecap="round" />
    <text x="195" y="195" font-family="sans-serif" font-size="20" font-weight="800" fill="white" text-anchor="middle">92</text>
    
    <!-- 评分指标 -->
    <text x="90" y="180" font-family="sans-serif" font-size="12" font-weight="400" fill="white">支出控制</text>
    <text x="90" y="200" font-family="sans-serif" font-size="14" font-weight="600" fill="white">90%</text>
    
    <text x="300" y="180" font-family="sans-serif" font-size="12" font-weight="400" fill="white">储蓄率</text>
    <text x="300" y="200" font-family="sans-serif" font-size="14" font-weight="600" fill="white">35%</text>
  </g>
  
  <!-- 本月收支统计卡片 -->
  <g filter="url(#filter1_d)">
    <rect x="24" y="260" width="342" height="180" rx="16" fill="white" />
    <text x="48" y="288" font-family="sans-serif" font-size="16" font-weight="600" fill="#333333">本月收支</text>
    <text x="318" y="288" font-family="sans-serif" font-size="14" font-weight="400" fill="#4A6CF7" text-anchor="end">查看详情</text>
    
    <!-- 收入 -->
    <text x="48" y="320" font-family="sans-serif" font-size="14" font-weight="400" fill="#666666">收入</text>
    <text x="48" y="348" font-family="sans-serif" font-size="24" font-weight="700" fill="#2ED573">¥12,580.00</text>
    
    <!-- 支出 -->
    <text x="48" y="380" font-family="sans-serif" font-size="14" font-weight="400" fill="#666666">支出</text>
    <text x="48" y="408" font-family="sans-serif" font-size="24" font-weight="700" fill="#FF6B6B">¥8,320.50</text>
    
    <!-- 收支图表 -->
    <rect x="200" y="320" width="142" height="100" rx="8" fill="#F5F7FA" />
    <rect x="220" y="380" width="20" height="20" fill="#2ED573" rx="4" />
    <rect x="220" y="350" width="20" height="50" fill="#FF6B6B" rx="4" />
    <rect x="250" y="370" width="20" height="30" fill="#2ED573" rx="4" />
    <rect x="250" y="330" width="20" height="40" fill="#FF6B6B" rx="4" />
    <rect x="280" y="360" width="20" height="40" fill="#2ED573" rx="4" />
    <rect x="280" y="340" width="20" height="20" fill="#FF6B6B" rx="4" />
    <rect x="310" y="350" width="20" height="50" fill="#2ED573" rx="4" />
    <rect x="310" y="330" width="20" height="20" fill="#FF6B6B" rx="4" />
  </g>
  
  <!-- AI洞察卡片 -->
  <g filter="url(#filter2_d)">
    <rect x="24" y="460" width="342" height="120" rx="16" fill="white" />
    <text x="48" y="488" font-family="sans-serif" font-size="16" font-weight="600" fill="#333333">AI财务洞察</text>
    <text x="318" y="488" font-family="sans-serif" font-size="14" font-weight="400" fill="#4A6CF7" text-anchor="end">更多</text>
    
    <!-- 洞察内容 -->
    <rect x="48" y="500" width="294" height="60" rx="8" fill="#F0F4FF" />
    <text x="64" y="530" font-family="sans-serif" font-size="14" font-weight="400" fill="#333333">您的餐饮支出比上月增加了15%，建议控制外卖频次，每周可节省约¥200。</text>
    <circle cx="318" cy="530" r="12" fill="#4A6CF7" />
    <path d="M314 530 L322 530 M318 526 L318 534" stroke="white" stroke-width="1.5" stroke-linecap="round" />
  </g>
  
  <!-- 最近交易记录 -->
  <text x="24" y="608" font-family="sans-serif" font-size="16" font-weight="600" fill="#333333">最近交易</text>
  <text x="366" y="608" font-family="sans-serif" font-size="14" font-weight="400" fill="#4A6CF7" text-anchor="end">查看全部</text>
  
  <!-- 交易记录列表 -->
  <g filter="url(#filter3_d)">
    <rect x="24" y="620" width="342" height="70" rx="12" fill="white" />
    <circle cx="60" cy="655" r="16" fill="#F0F4FF" />
    <path d="M54 655 L66 655 M60 649 L60 661" stroke="#4A6CF7" stroke-width="2" stroke-linecap="round" />
    <text x="90" y="650" font-family="sans-serif" font-size="16" font-weight="500" fill="#333333">午餐</text>
    <text x="90" y="670" font-family="sans-serif" font-size="14" font-weight="400" fill="#666666">今天 12:30</text>
    <text x="318" y="660" font-family="sans-serif" font-size="16" font-weight="600" fill="#FF6B6B" text-anchor="end">-¥35.00</text>
  </g>
  
  <g filter="url(#filter4_d)">
    <rect x="24" y="700" width="342" height="70" rx="12" fill="white" />
    <circle cx="60" cy="735" r="16" fill="#F0F4FF" />
    <path d="M54 735 C54 735, 60 729, 66 735 C66 735, 60 741, 54 735" stroke="#4A6CF7" stroke-width="2" stroke-linecap="round" stroke-linejoin="round" />
    <text x="90" y="730" font-family="sans-serif" font-size="16" font-weight="500" fill="#333333">工资</text>
    <text x="90" y="750" font-family="sans-serif" font-size="14" font-weight="400" fill="#666666">昨天 09:15</text>
    <text x="318" y="740" font-family="sans-serif" font-size="16" font-weight="600" fill="#2ED573" text-anchor="end">+¥6,500.00</text>
  </g>
  
  <!-- 底部导航栏 -->
  <rect y="784" width="390" height="60" fill="white" />
  <line x1="0" y1="784" x2="390" y2="784" stroke="#EBEEF5" stroke-width="1" />
  
  <!-- 首页图标 (当前选中) -->
  <circle cx="60" cy="814" r="4" fill="#4A6CF7" />
  <text x="60" y="834" font-family="sans-serif" font-size="12" font-weight="500" fill="#4A6CF7" text-anchor="middle">首页</text>
  
  <!-- 记账图标 -->
  <circle cx="150" cy="814" r="20" fill="#F5F7FA" />
  <path d="M144 814 L156 814 M150 808 L150 820" stroke="#666666" stroke-width="2" stroke-linecap="round" />
  <text x="150" y="834" font-family="sans-serif" font-size="12" font-weight="400" fill="#666666" text-anchor="middle">记账</text>
  
  <!-- 报表图标 -->
  <rect x="230" y="804" width="20" height="20" rx="4" fill="#F5F7FA" />
  <path d="M234 814 L238 810 L242 814 L246 808" stroke="#666666" stroke-width="2" stroke-linecap="round" stroke-linejoin="round" />
  <text x="240" y="834" font-family="sans-serif" font-size="12" font-weight="400" fill="#666666" text-anchor="middle">报表</text>
  
  <!-- 我的图标 -->
  <circle cx="330" cy="814" r="10" stroke="#666666" stroke-width="2" />
  <circle cx="330" cy="810" r="3" fill="#666666" />
  <path d="M322 822 C322 822, 330 818, 338 822" stroke="#666666" stroke-width="2" stroke-linecap="round" />
  <text x="330" y="834" font-family="sans-serif" font-size="12" font-weight="400" fill="#666666" text-anchor="middle">我的</text>
  
  <!-- 快捷记账按钮 -->
  <circle cx="195" cy="814" r="28" fill="#4A6CF7" filter="url(#filter5_d)" />
  <path d="M189 814 L201 814 M195 808 L195 820" stroke="white" stroke-width="2.5" stroke-linecap="round" />
  
  <!-- 滤镜定义 -->
  <defs>
    <filter id="filter0_d" x="20" y="118" width="350" height="128" filterUnits="userSpaceOnUse" color-interpolation-filters="sRGB">
      <feFlood flood-opacity="0" result="BackgroundImageFix"/>
      <feColorMatrix in="SourceAlpha" type="matrix" values="0 0 0 0 0 0 0 0 0 0 0 0 0 0 0 0 0 0 127 0"/>
      <feOffset dy="2"/>
      <feGaussianBlur stdDeviation="2"/>
      <feColorMatrix type="matrix" values="0 0 0 0 0 0 0 0 0 0 0 0 0 0 0 0 0 0 0.1 0"/>
      <feBlend mode="normal" in2="BackgroundImageFix" result="effect1_dropShadow"/>
      <feBlend mode="normal" in="SourceGraphic" in2="effect1_dropShadow" result="shape"/>
    </filter>
    <filter id="filter1_d" x="20" y="258" width="350" height="188" filterUnits="userSpaceOnUse" color-interpolation-filters="sRGB">
      <feFlood flood-opacity="0" result="BackgroundImageFix"/>
      <feColorMatrix in="SourceAlpha" type="matrix" values="0 0 0 0 0 0 0 0 0 0 0 0 0 0 0 0 0 0 127 0"/>
      <feOffset dy="2"/>
      <feGaussianBlur stdDeviation="2"/>
      <feColorMatrix type="matrix" values="0 0 0 0 0 0 0 0 0 0 0 0 0 0 0 0 0 0 0.1 0"/>
      <feBlend mode="normal" in2="BackgroundImageFix" result="effect1_dropShadow"/>
      <feBlend mode="normal" in="SourceGraphic" in2="effect1_dropShadow" result="shape"/>
    </filter>
    <filter id="filter2_d" x="20" y="458" width="350" height="128" filterUnits="userSpaceOnUse" color-interpolation-filters="sRGB">
      <feFlood flood-opacity="0" result="BackgroundImageFix"/>
      <feColorMatrix in="SourceAlpha" type="matrix" values="0 0 0 0 0 0 0 0 0 0 0 0 0 0 0 0 0 0 127 0"/>
      <feOffset dy="2"/>
      <feGaussianBlur stdDeviation="2"/>
      <feColorMatrix type="matrix" values="0 0 0 0 0 0 0 0 0 0 0 0 0 0 0 0 0 0 0.1 0"/>
      <feBlend mode="normal" in2="BackgroundImageFix" result="effect1_dropShadow"/>
      <feBlend mode="normal" in="SourceGraphic" in2="effect1_dropShadow" result="shape"/>
    </filter>
    <filter id="filter3_d" x="20" y="618" width="350" height="78" filterUnits="userSpaceOnUse" color-interpolation-filters="sRGB">
      <feFlood flood-opacity="0" result="BackgroundImageFix"/>
      <feColorMatrix in="SourceAlpha" type="matrix" values="0 0 0 0 0 0 0 0 0 0 0 0 0 0 0 0 0 0 127 0"/>
      <feOffset dy="2"/>
      <feGaussianBlur stdDeviation="2"/>
      <feColorMatrix type="matrix" values="0 0 0 0 0 0 0 0 0 0 0 0 0 0 0 0 0 0 0.1 0"/>
      <feBlend mode="normal" in2="BackgroundImageFix" result="effect1_dropShadow"/>
      <feBlend mode="normal" in="SourceGraphic" in2="effect1_dropShadow" result="shape"/>
    </filter>
    <filter id="filter4_d" x="20" y="698" width="350" height="78" filterUnits="userSpaceOnUse" color-interpolation-filters="sRGB">
      <feFlood flood-opacity="0" result="BackgroundImageFix"/>
      <feColorMatrix in="SourceAlpha" type="matrix" values="0 0 0 0 0 0 0 0 0 0 0 0 0 0 0 0 0 0 127 0"/>
      <feOffset dy="2"/>
      <feGaussianBlur stdDeviation="2"/>
      <feColorMatrix type="matrix" values="0 0 0 0 0 0 0 0 0 0 0 0 0 0 0 0 0 0 0.1 0"/>
      <feBlend mode="normal" in2="BackgroundImageFix" result="effect1_dropShadow"/>
      <feBlend mode="normal" in="SourceGraphic" in2="effect1_dropShadow" result="shape"/>
    </filter>
    <filter id="filter5_d" x="163" y="784" width="64" height="64" filterUnits="userSpaceOnUse" color-interpolation-filters="sRGB">
      <feFlood flood-opacity="0" result="BackgroundImageFix"/>
      <feColorMatrix in="SourceAlpha" type="matrix" values="0 0 0 0 0 0 0 0 0 0 0 0 0 0 0 0 0 0 127 0"/>
      <feOffset dy="2"/>
      <feGaussianBlur stdDeviation="2"/>
      <feColorMatrix type="matrix" values="0 0 0 0 0 0 0 0 0 0 0 0 0 0 0 0 0 0 0.25 0"/>
      <feBlend mode="normal" in2="BackgroundImageFix" result="effect1_dropShadow"/>
      <feBlend mode="normal" in="SourceGraphic" in2="effect1_dropShadow" result="shape"/>
    </filter>
    <linearGradient id="paint0_linear" x1="24" y1="120" x2="366" y2="240" gradientUnits="userSpaceOnUse">
      <stop offset="0" stop-color="#4A6CF7" />
      <stop offset="1" stop-color="#6E8CFF" />
    </linearGradient>
  </defs>
</svg>