<svg width="390" height="844" viewBox="0 0 390 844" fill="none" xmlns="http://www.w3.org/2000/svg">
  <!-- 背景 -->
  <rect width="390" height="844" fill="#F5F7FA" />
  
  <!-- 顶部状态栏 -->
  <rect width="390" height="44" fill="white" />
  <text x="24" y="24" font-family="sans-serif" font-size="14" font-weight="600" fill="#333333" dominant-baseline="middle">9:41</text>
  <text x="366" y="24" font-family="sans-serif" font-size="14" font-weight="600" fill="#333333" text-anchor="end" dominant-baseline="middle">100%</text>
  
  <!-- 顶部导航栏 -->
  <rect y="44" width="390" height="56" fill="white" />
  <text x="24" y="72" font-family="sans-serif" font-size="20" font-weight="700" fill="#333333" dominant-baseline="middle">家庭协作</text>
  <circle cx="354" cy="72" r="18" fill="#F5F7FA" />
  <path d="M348 72 L360 72 M354 66 L354 78" stroke="#4A6CF7" stroke-width="2" stroke-linecap="round" />
  
  <!-- 家庭账本卡片 -->
  <g filter="url(#filter0_d)">
    <rect x="24" y="120" width="342" height="120" rx="16" fill="url(#paint0_linear)" />
    <text x="48" y="148" font-family="sans-serif" font-size="16" font-weight="600" fill="white">家庭账本</text>
    <text x="318" y="148" font-family="sans-serif" font-size="16" font-weight="600" fill="white" text-anchor="end">2025年5月</text>
    
    <!-- 家庭成员头像 -->
    <circle cx="60" cy="190" r="20" fill="white" />
    <circle cx="60" cy="186" r="3" fill="#4A6CF7" />
    <path d="M52 198 C52 198, 60 194, 68 198" stroke="#4A6CF7" stroke-width="2" stroke-linecap="round" />
    
    <circle cx="110" cy="190" r="20" fill="white" />
    <circle cx="110" cy="186" r="3" fill="#FF6B6B" />
    <path d="M102 198 C102 198, 110 194, 118 198" stroke="#FF6B6B" stroke-width="2" stroke-linecap="round" />
    
    <circle cx="160" cy="190" r="20" fill="white" />
    <circle cx="160" cy="186" r="3" fill="#2ED573" />
    <path d="M152 198 C152 198, 160 194, 168 198" stroke="#2ED573" stroke-width="2" stroke-linecap="round" />
    
    <circle cx="210" cy="190" r="20" fill="white" fill-opacity="0.5" />
    <path d="M204 190 L216 190 M210 184 L210 196" stroke="white" stroke-width="2" stroke-linecap="round" />
    
    <!-- 家庭账本数据 -->
    <text x="260" y="180" font-family="sans-serif" font-size="14" font-weight="400" fill="white">总支出</text>
    <text x="318" y="180" font-family="sans-serif" font-size="14" font-weight="600" fill="white" text-anchor="end">¥12,580.50</text>
    
    <text x="260" y="205" font-family="sans-serif" font-size="14" font-weight="400" fill="white">总收入</text>
    <text x="318" y="205" font-family="sans-serif" font-size="14" font-weight="600" fill="white" text-anchor="end">¥18,500.00</text>
  </g>
  
  <!-- 家庭成员贡献标题 -->
  <text x="24" y="268" font-family="sans-serif" font-size="16" font-weight="600" fill="#333333">成员贡献</text>
  
  <!-- 家庭成员贡献卡片 -->
  <g filter="url(#filter1_d)">
    <rect x="24" y="280" width="342" height="200" rx="16" fill="white" />
    
    <!-- 饼图 -->
    <circle cx="120" cy="380" r="60" fill="none" stroke="#EBEEF5" stroke-width="1" />
    
    <!-- 饼图扇形 - 爸爸 -->
    <path d="M120 320 L120 380 L180 380" fill="#4A6CF7" />
    <path d="M120 320 A60 60 0 0 1 180 380 L120 380 Z" fill="#4A6CF7" />
    
    <!-- 饼图扇形 - 妈妈 -->
    <path d="M120 380 L180 380 L120 440" fill="#FF6B6B" />
    <path d="M180 380 A60 60 0 0 1 120 440 L120 380 Z" fill="#FF6B6B" />
    
    <!-- 饼图扇形 - 孩子 -->
    <path d="M120 380 L120 440 L60 380" fill="#2ED573" />
    <path d="M120 440 A60 60 0 0 1 60 380 L120 380 Z" fill="#2ED573" />
    
    <!-- 饼图扇形 - 其他 -->
    <path d="M120 380 L60 380 L120 320" fill="#FFBA49" />
    <path d="M60 380 A60 60 0 0 1 120 320 L120 380 Z" fill="#FFBA49" />
    
    <!-- 图例 -->
    <circle cx="220" cy="320" r="8" fill="#4A6CF7" />
    <text x="236" y="324" font-family="sans-serif" font-size="14" font-weight="400" fill="#333333">爸爸 45%</text>
    
    <circle cx="220" cy="350" r="8" fill="#FF6B6B" />
    <text x="236" y="354" font-family="sans-serif" font-size="14" font-weight="400" fill="#333333">妈妈 30%</text>
    
    <circle cx="220" cy="380" r="8" fill="#2ED573" />
    <text x="236" y="384" font-family="sans-serif" font-size="14" font-weight="400" fill="#333333">孩子 15%</text>
    
    <circle cx="220" cy="410" r="8" fill="#FFBA49" />
    <text x="236" y="414" font-family="sans-serif" font-size="14" font-weight="400" fill="#333333">其他 10%</text>
    
    <!-- 总收入 -->
    <text x="120" y="370" font-family="sans-serif" font-size="14" font-weight="400" fill="white" text-anchor="middle">总收入</text>
    <text x="120" y="394" font-family="sans-serif" font-size="16" font-weight="700" fill="white" text-anchor="middle">¥18,500</text>
  </g>
  
  <!-- 家庭账单标题 -->
  <text x="24" y="508" font-family="sans-serif" font-size="16" font-weight="600" fill="#333333">家庭账单</text>
  <text x="366" y="508" font-family="sans-serif" font-size="14" font-weight="400" fill="#4A6CF7" text-anchor="end">查看全部</text>
  
  <!-- 家庭账单列表 -->
  <g filter="url(#filter2_d)">
    <rect x="24" y="520" width="342" height="70" rx="12" fill="white" />
    <circle cx="60" cy="555" r="16" fill="#F0F4FF" />
    <path d="M54 555 C54 555, 60 549, 66 555 C66 555, 60 561, 54 555" stroke="#4A6CF7" stroke-width="2" stroke-linecap="round" stroke-linejoin="round" />
    <text x="90" y="550" font-family="sans-serif" font-size="16" font-weight="500" fill="#333333">超市购物</text>
    <text x="90" y="570" font-family="sans-serif" font-size="14" font-weight="400" fill="#666666">爸爸 · 今天 14:30</text>
    <text x="318" y="560" font-family="sans-serif" font-size="16" font-weight="600" fill="#FF6B6B" text-anchor="end">-¥235.00</text>
  </g>
  
  <g filter="url(#filter3_d)">
    <rect x="24" y="600" width="342" height="70" rx="12" fill="white" />
    <circle cx="60" cy="635" r="16" fill="#F0F4FF" />
    <path d="M52 635 L68 635 M60 627 L60 643" stroke="#4A6CF7" stroke-width="2" stroke-linecap="round" />
    <text x="90" y="630" font-family="sans-serif" font-size="16" font-weight="500" fill="#333333">水电费</text>
    <text x="90" y="650" font-family="sans-serif" font-size="14" font-weight="400" fill="#666666">妈妈 · 昨天 10:15</text>
    <text x="318" y="640" font-family="sans-serif" font-size="16" font-weight="600" fill="#FF6B6B" text-anchor="end">-¥320.00</text>
  </g>
  
  <g filter="url(#filter4_d)">
    <rect x="24" y="680" width="342" height="70" rx="12" fill="white" />
    <circle cx="60" cy="715" r="16" fill="#F0F4FF" />
    <path d="M52 715 C52 715, 60 709, 68 715 C68 715, 60 721, 52 715" stroke="#4A6CF7" stroke-width="2" stroke-linecap="round" stroke-linejoin="round" />
    <text x="90" y="710" font-family="sans-serif" font-size="16" font-weight="500" fill="#333333">工资收入</text>
    <text x="90" y="730" font-family="sans-serif" font-size="14" font-weight="400" fill="#666666">爸爸 · 5月15日</text>
    <text x="318" y="720" font-family="sans-serif" font-size="16" font-weight="600" fill="#2ED573" text-anchor="end">+¥8,500.00</text>
  </g>
  
  <!-- 底部导航栏 -->
  <rect y="784" width="390" height="60" fill="white" />
  <line x1="0" y1="784" x2="390" y2="784" stroke="#EBEEF5" stroke-width="1" />
  
  <!-- 首页图标 -->
  <circle cx="60" cy="814" r="20" fill="#F5F7FA" />
  <path d="M50 814 L70 814 M60 804 L60 824" stroke="#666666" stroke-width="2" stroke-linecap="round" />
  <text x="60" y="834" font-family="sans-serif" font-size="12" font-weight="400" fill="#666666" text-anchor="middle">首页</text>
  
  <!-- 记账图标 -->
  <circle cx="150" cy="814" r="20" fill="#F5F7FA" />
  <path d="M144 814 L156 814 M150 808 L150 820" stroke="#666666" stroke-width="2" stroke-linecap="round" />
  <text x="150" y="834" font-family="sans-serif" font-size="12" font-weight="400" fill="#666666" text-anchor="middle">记账</text>
  
  <!-- 报表图标 -->
  <rect x="230" y="804" width="20" height="20" rx="4" fill="#F5F7FA" />
  <path d="M234 814 L238 810 L242 814 L246 808" stroke="#666666" stroke-width="2" stroke-linecap="round" stroke-linejoin="round" />
  <text x="240" y="834" font-family="sans-serif" font-size="12" font-weight="400" fill="#666666" text-anchor="middle">报表</text>
  
  <!-- 我的图标 -->
  <circle cx="330" cy="814" r="10" stroke="#666666" stroke-width="2" />
  <circle cx="330" cy="810" r="3" fill="#666666" />
  <path d="M322 822 C322 822, 330 818, 338 822" stroke="#666666" stroke-width="2" stroke-linecap="round" />
  <text x="330" y="834" font-family="sans-serif" font-size="12" font-weight="400" fill="#666666" text-anchor="middle">我的</text>
  
  <!-- 滤镜定义 -->
  <defs>
    <filter id="filter0_d" x="20" y="118" width="350" height="128" filterUnits="userSpaceOnUse" color-interpolation-filters="sRGB">
      <feFlood flood-opacity="0" result="BackgroundImageFix"/>
      <feColorMatrix in="SourceAlpha" type="matrix" values="0 0 0 0 0 0 0 0 0 0 0 0 0 0 0 0 0 0 127 0"/>
      <feOffset dy="2"/>
      <feGaussianBlur stdDeviation="2"/>
      <feColorMatrix type="matrix" values="0 0 0 0 0 0 0 0 0 0 0 0 0 0 0 0 0 0 0.1 0"/>
      <feBlend mode="normal" in2="BackgroundImageFix" result="effect1_dropShadow"/>
      <feBlend mode="normal" in="SourceGraphic" in2="effect1_dropShadow" result="shape"/>
    </filter>
    <filter id="filter1_d" x="20" y="278" width="350" height="208" filterUnits="userSpaceOnUse" color-interpolation-filters="sRGB">
      <feFlood flood-opacity="0" result="BackgroundImageFix"/>
      <feColorMatrix in="SourceAlpha" type="matrix" values="0 0 0 0 0 0 0 0 0 0 0 0 0 0 0 0 0 0 127 0"/>
      <feOffset dy="2"/>
      <feGaussianBlur stdDeviation="2"/>
      <feColorMatrix type="matrix" values="0 0 0 0 0 0 0 0 0 0 0 0 0 0 0 0 0 0 0.1 0"/>
      <feBlend mode="normal" in2="BackgroundImageFix" result="effect1_dropShadow"/>
      <feBlend mode="normal" in="SourceGraphic" in2="effect1_dropShadow" result="shape"/>
    </filter>
    <filter id="filter2_d" x="20" y="518" width="350" height="78" filterUnits="userSpaceOnUse" color-interpolation-filters="sRGB">
      <feFlood flood-opacity="0" result="BackgroundImageFix"/>
      <feColorMatrix in="SourceAlpha" type="matrix" values="0 0 0 0 0 0 0 0 0 0 0 0 0 0 0 0 0 0 127 0"/>
      <feOffset dy="2"/>
      <feGaussianBlur stdDeviation="2"/>
      <feColorMatrix type="matrix" values="0 0 0 0 0 0 0 0 0 0 0 0 0 0 0 0 0 0 0.1 0"/>
      <feBlend mode="normal" in2="BackgroundImageFix" result="effect1_dropShadow"/>
      <feBlend mode="normal" in="SourceGraphic" in2="effect1_dropShadow" result="shape"/>
    </filter>
    <filter id="filter3_d" x="20" y="598" width="350" height="78" filterUnits="userSpaceOnUse" color-interpolation-filters="sRGB">
      <feFlood flood-opacity="0" result="BackgroundImageFix"/>
      <feColorMatrix in="SourceAlpha" type="matrix" values="0 0 0 0 0 0 0 0 0 0 0 0 0 0 0 0 0 0 127 0"/>
      <feOffset dy="2"/>
      <feGaussianBlur stdDeviation="2"/>
      <feColorMatrix type="matrix" values="0 0 0 0 0 0 0 0 0 0 0 0 0 0 0 0 0 0 0.1 0"/>
      <feBlend mode="normal" in2="BackgroundImageFix" result="effect1_dropShadow"/>
      <feBlend mode="normal" in="SourceGraphic" in2="effect1_dropShadow" result="shape"/>
    </filter>
    <filter id="filter4_d" x="20" y="678" width="350" height="78" filterUnits="userSpaceOnUse" color-interpolation-filters="sRGB">
      <feFlood flood-opacity="0" result="BackgroundImageFix"/>
      <feColorMatrix in="SourceAlpha" type="matrix" values="0 0 0 0 0 0 0 0 0 0 0 0 0 0 0 0 0 0 127 0"/>
      <feOffset dy="2"/>
      <feGaussianBlur stdDeviation="2"/>
      <feColorMatrix type="matrix" values="0 0 0 0 0 0 0 0 0 0 0 0 0 0 0 0 0 0 0.1 0"/>
      <feBlend mode="normal" in2="BackgroundImageFix" result="effect1_dropShadow"/>
      <feBlend mode="normal" in="SourceGraphic" in2="effect1_dropShadow" result="shape"/>
    </filter>
    <linearGradient id="paint0_linear" x1="24" y1="120" x2="366" y2="240" gradientUnits="userSpaceOnUse">
      <stop offset="0" stop-color="#4A6CF7" />
      <stop offset="1" stop-color="#6E8CFF" />
    </linearGradient>
  </defs>
</svg>