<svg width="390" height="844" viewBox="0 0 390 844" fill="none" xmlns="http://www.w3.org/2000/svg">
  <!-- 背景 -->
  <rect width="390" height="844" fill="#F5F7FA" />
  
  <!-- 顶部状态栏 -->
  <rect width="390" height="44" fill="white" />
  <text x="24" y="24" font-family="sans-serif" font-size="14" font-weight="600" fill="#333333" dominant-baseline="middle">9:41</text>
  <text x="366" y="24" font-family="sans-serif" font-size="14" font-weight="600" fill="#333333" text-anchor="end" dominant-baseline="middle">100%</text>
  
  <!-- 顶部导航栏 -->
  <rect y="44" width="390" height="56" fill="white" />
  <circle cx="36" cy="72" r="20" fill="#F5F7FA" />
  <path d="M42 72 L30 72 M30 72 L36 66 M30 72 L36 78" stroke="#333333" stroke-width="2" stroke-linecap="round" stroke-linejoin="round" />
  <text x="195" y="72" font-family="sans-serif" font-size="18" font-weight="600" fill="#333333" text-anchor="middle" dominant-baseline="middle">快速记账模板</text>
  
  <!-- 标题 -->
  <text x="24" y="130" font-family="sans-serif" font-size="20" font-weight="700" fill="#333333">常用模板</text>
  <text x="24" y="160" font-family="sans-serif" font-size="14" font-weight="400" fill="#666666">选择模板快速记账，提高记账效率</text>
  
  <!-- 模板卡片 - 早餐 -->
  <g filter="url(#filter0_d)">
    <rect x="24" y="180" width="166" height="120" rx="16" fill="white" />
    <circle cx="60" cy="220" r="24" fill="#F0F4FF" />
    <path d="M52 220 C52 220, 60 212, 68 220 C68 220, 60 228, 52 220" stroke="#4A6CF7" stroke-width="2" stroke-linecap="round" stroke-linejoin="round" />
    <text x="60" y="260" font-family="sans-serif" font-size="16" font-weight="600" fill="#333333" text-anchor="middle">早餐</text>
    <text x="60" y="280" font-family="sans-serif" font-size="14" font-weight="400" fill="#FF6B6B" text-anchor="middle">¥15.00</text>
  </g>
  
  <!-- 模板卡片 - 午餐 -->
  <g filter="url(#filter1_d)">
    <rect x="200" y="180" width="166" height="120" rx="16" fill="white" />
    <circle cx="236" cy="220" r="24" fill="#F0F4FF" />
    <path d="M228 220 C228 220, 236 212, 244 220 C244 220, 236 228, 228 220" stroke="#4A6CF7" stroke-width="2" stroke-linecap="round" stroke-linejoin="round" />
    <text x="236" y="260" font-family="sans-serif" font-size="16" font-weight="600" fill="#333333" text-anchor="middle">午餐</text>
    <text x="236" y="280" font-family="sans-serif" font-size="14" font-weight="400" fill="#FF6B6B" text-anchor="middle">¥35.00</text>
  </g>
  
  <!-- 模板卡片 - 晚餐 -->
  <g filter="url(#filter2_d)">
    <rect x="24" y="320" width="166" height="120" rx="16" fill="white" />
    <circle cx="60" cy="360" r="24" fill="#F0F4FF" />
    <path d="M52 360 C52 360, 60 352, 68 360 C68 360, 60 368, 52 360" stroke="#4A6CF7" stroke-width="2" stroke-linecap="round" stroke-linejoin="round" />
    <text x="60" y="400" font-family="sans-serif" font-size="16" font-weight="600" fill="#333333" text-anchor="middle">晚餐</text>
    <text x="60" y="420" font-family="sans-serif" font-size="14" font-weight="400" fill="#FF6B6B" text-anchor="middle">¥50.00</text>
  </g>
  
  <!-- 模板卡片 - 交通 -->
  <g filter="url(#filter3_d)">
    <rect x="200" y="320" width="166" height="120" rx="16" fill="white" />
    <circle cx="236" cy="360" r="24" fill="#F0F4FF" />
    <path d="M228 360 L244 360 M236 352 L236 368" stroke="#4A6CF7" stroke-width="2" stroke-linecap="round" />
    <text x="236" y="400" font-family="sans-serif" font-size="16" font-weight="600" fill="#333333" text-anchor="middle">交通</text>
    <text x="236" y="420" font-family="sans-serif" font-size="14" font-weight="400" fill="#FF6B6B" text-anchor="middle">¥10.00</text>
  </g>
  
  <!-- 标题 - 自定义模板 -->
  <text x="24" y="480" font-family="sans-serif" font-size="20" font-weight="700" fill="#333333">自定义模板</text>
  <text x="24" y="510" font-family="sans-serif" font-size="14" font-weight="400" fill="#666666">创建您的个性化记账模板</text>
  
  <!-- 自定义模板卡片 - 咖啡 -->
  <g filter="url(#filter4_d)">
    <rect x="24" y="530" width="166" height="120" rx="16" fill="white" />
    <circle cx="60" cy="570" r="24" fill="#F0F4FF" />
    <path d="M52 570 C52 570, 60 562, 68 570 C68 570, 60 578, 52 570" stroke="#4A6CF7" stroke-width="2" stroke-linecap="round" stroke-linejoin="round" />
    <text x="60" y="610" font-family="sans-serif" font-size="16" font-weight="600" fill="#333333" text-anchor="middle">咖啡</text>
    <text x="60" y="630" font-family="sans-serif" font-size="14" font-weight="400" fill="#FF6B6B" text-anchor="middle">¥28.00</text>
  </g>
  
  <!-- 自定义模板卡片 - 健身 -->
  <g filter="url(#filter5_d)">
    <rect x="200" y="530" width="166" height="120" rx="16" fill="white" />
    <circle cx="236" cy="570" r="24" fill="#F0F4FF" />
    <path d="M228 570 L244 570 M236 562 L236 578" stroke="#4A6CF7" stroke-width="2" stroke-linecap="round" />
    <text x="236" y="610" font-family="sans-serif" font-size="16" font-weight="600" fill="#333333" text-anchor="middle">健身</text>
    <text x="236" y="630" font-family="sans-serif" font-size="14" font-weight="400" fill="#FF6B6B" text-anchor="middle">¥199.00</text>
  </g>
  
  <!-- 创建新模板按钮 -->
  <g filter="url(#filter6_d)">
    <rect x="24" y="670" width="342" height="60" rx="16" fill="white" />
    <circle cx="60" cy="700" r="20" fill="#F0F4FF" />
    <path d="M52 700 L68 700 M60 692 L60 708" stroke="#4A6CF7" stroke-width="2" stroke-linecap="round" />
    <text x="100" y="705" font-family="sans-serif" font-size="16" font-weight="500" fill="#333333">创建新模板</text>
    <path d="M342 700 L350 700 M346 696 L346 704" stroke="#666666" stroke-width="1.5" stroke-linecap="round" />
  </g>
  
  <!-- 底部导航栏 -->
  <rect y="784" width="390" height="60" fill="white" />
  <line x1="0" y1="784" x2="390" y2="784" stroke="#EBEEF5" stroke-width="1" />
  
  <!-- 首页图标 -->
  <circle cx="60" cy="814" r="20" fill="#F5F7FA" />
  <path d="M50 814 L70 814 M60 804 L60 824" stroke="#666666" stroke-width="2" stroke-linecap="round" />
  <text x="60" y="834" font-family="sans-serif" font-size="12" font-weight="400" fill="#666666" text-anchor="middle">首页</text>
  
  <!-- 记账图标 (当前选中) -->
  <circle cx="150" cy="814" r="20" fill="#F5F7FA" />
  <path d="M144 814 L156 814 M150 808 L150 820" stroke="#4A6CF7" stroke-width="2" stroke-linecap="round" />
  <text x="150" y="834" font-family="sans-serif" font-size="12" font-weight="500" fill="#4A6CF7" text-anchor="middle">记账</text>
  <circle cx="150" cy="814" r="4" fill="#4A6CF7" />
  
  <!-- 报表图标 -->
  <rect x="230" y="804" width="20" height="20" rx="4" fill="#F5F7FA" />
  <path d="M234 814 L238 810 L242 814 L246 808" stroke="#666666" stroke-width="2" stroke-linecap="round" stroke-linejoin="round" />
  <text x="240" y="834" font-family="sans-serif" font-size="12" font-weight="400" fill="#666666" text-anchor="middle">报表</text>
  
  <!-- 我的图标 -->
  <circle cx="330" cy="814" r="10" stroke="#666666" stroke-width="2" />
  <circle cx="330" cy="810" r="3" fill="#666666" />
  <path d="M322 822 C322 822, 330 818, 338 822" stroke="#666666" stroke-width="2" stroke-linecap="round" />
  <text x="330" y="834" font-family="sans-serif" font-size="12" font-weight="400" fill="#666666" text-anchor="middle">我的</text>
  
  <!-- 滤镜定义 -->
  <defs>
    <filter id="filter0_d" x="20" y="178" width="174" height="128" filterUnits="userSpaceOnUse" color-interpolation-filters="sRGB">
      <feFlood flood-opacity="0" result="BackgroundImageFix"/>
      <feColorMatrix in="SourceAlpha" type="matrix" values="0 0 0 0 0 0 0 0 0 0 0 0 0 0 0 0 0 0 127 0"/>
      <feOffset dy="2"/>
      <feGaussianBlur stdDeviation="2"/>
      <feColorMatrix type="matrix" values="0 0 0 0 0 0 0 0 0 0 0 0 0 0 0 0 0 0 0.1 0"/>
      <feBlend mode="normal" in2="BackgroundImageFix" result="effect1_dropShadow"/>
      <feBlend mode="normal" in="SourceGraphic" in2="effect1_dropShadow" result="shape"/>
    </filter>
    <filter id="filter1_d" x="196" y="178" width="174" height="128" filterUnits="userSpaceOnUse" color-interpolation-filters="sRGB">
      <feFlood flood-opacity="0" result="BackgroundImageFix"/>
      <feColorMatrix in="SourceAlpha" type="matrix" values="0 0 0 0 0 0 0 0 0 0 0 0 0 0 0 0 0 0 127 0"/>
      <feOffset dy="2"/>
      <feGaussianBlur stdDeviation="2"/>
      <feColorMatrix type="matrix" values="0 0 0 0 0 0 0 0 0 0 0 0 0 0 0 0 0 0 0.1 0"/>
      <feBlend mode="normal" in2="BackgroundImageFix" result="effect1_dropShadow"/>
      <feBlend mode="normal" in="SourceGraphic" in2="effect1_dropShadow" result="shape"/>
    </filter>
    <filter id="filter2_d" x="20" y="318" width="174" height="128" filterUnits="userSpaceOnUse" color-interpolation-filters="sRGB">
      <feFlood flood-opacity="0" result="BackgroundImageFix"/>
      <feColorMatrix in="SourceAlpha" type="matrix" values="0 0 0 0 0 0 0 0 0 0 0 0 0 0 0 0 0 0 127 0"/>
      <feOffset dy="2"/>
      <feGaussianBlur stdDeviation="2"/>
      <feColorMatrix type="matrix" values="0 0 0 0 0 0 0 0 0 0 0 0 0 0 0 0 0 0 0.1 0"/>
      <feBlend mode="normal" in2="BackgroundImageFix" result="effect1_dropShadow"/>
      <feBlend mode="normal" in="SourceGraphic" in2="effect1_dropShadow" result="shape"/>
    </filter>
    <filter id="filter3_d" x="196" y="318" width="174" height="128" filterUnits="userSpaceOnUse" color-interpolation-filters="sRGB">
      <feFlood flood-opacity="0" result="BackgroundImageFix"/>
      <feColorMatrix in="SourceAlpha" type="matrix" values="0 0 0 0 0 0 0 0 0 0 0 0 0 0 0 0 0 0 127 0"/>
      <feOffset dy="2"/>
      <feGaussianBlur stdDeviation="2"/>
      <feColorMatrix type="matrix" values="0 0 0 0 0 0 0 0 0 0 0 0 0 0 0 0 0 0 0.1 0"/>
      <feBlend mode="normal" in2="BackgroundImageFix" result="effect1_dropShadow"/>
      <feBlend mode="normal" in="SourceGraphic" in2="effect1_dropShadow" result="shape"/>
    </filter>
    <filter id="filter4_d" x="20" y="528" width="174" height="128" filterUnits="userSpaceOnUse" color-interpolation-filters="sRGB">
      <feFlood flood-opacity="0" result="BackgroundImageFix"/>
      <feColorMatrix in="SourceAlpha" type="matrix" values="0 0 0 0 0 0 0 0 0 0 0 0 0 0 0 0 0 0 127 0"/>
      <feOffset dy="2"/>
      <feGaussianBlur stdDeviation="2"/>
      <feColorMatrix type="matrix" values="0 0 0 0 0 0 0 0 0 0 0 0 0 0 0 0 0 0 0.1 0"/>
      <feBlend mode="normal" in2="BackgroundImageFix" result="effect1_dropShadow"/>
      <feBlend mode="normal" in="SourceGraphic" in2="effect1_dropShadow" result="shape"/>
    </filter>
    <filter id="filter5_d" x="196" y="528" width="174" height="128" filterUnits="userSpaceOnUse" color-interpolation-filters="sRGB">
      <feFlood flood-opacity="0" result="BackgroundImageFix"/>
      <feColorMatrix in="SourceAlpha" type="matrix" values="0 0 0 0 0 0 0 0 0 0 0 0 0 0 0 0 0 0 127 0"/>
      <feOffset dy="2"/>
      <feGaussianBlur stdDeviation="2"/>
      <feColorMatrix type="matrix" values="0 0 0 0 0 0 0 0 0 0 0 0 0 0 0 0 0 0 0.1 0"/>
      <feBlend mode="normal" in2="BackgroundImageFix" result="effect1_dropShadow"/>
      <feBlend mode="normal" in="SourceGraphic" in2="effect1_dropShadow" result="shape"/>
    </filter>
    <filter id="filter6_d" x="20" y="668" width="350" height="68" filterUnits="userSpaceOnUse" color-interpolation-filters="sRGB">
      <feFlood flood-opacity="0" result="BackgroundImageFix"/>
      <feColorMatrix in="SourceAlpha" type="matrix" values="0 0 0 0 0 0 0 0 0 0 0 0 0 0 0 0 0 0 127 0"/>
      <feOffset dy="2"/>
      <feGaussianBlur stdDeviation="2"/>
      <feColorMatrix type="matrix" values="0 0 0 0 0 0 0 0 0 0 0 0 0 0 0 0 0 0 0.1 0"/>
      <feBlend mode="normal" in2="BackgroundImageFix" result="effect1_dropShadow"/>
      <feBlend mode="normal" in="SourceGraphic" in2="effect1_dropShadow" result="shape"/>
    </filter>
  </defs>
</svg>