<svg width="390" height="844" viewBox="0 0 390 844" fill="none" xmlns="http://www.w3.org/2000/svg">
  <!-- 背景 -->
  <rect width="390" height="844" fill="#F5F7FA" />
  
  <!-- 顶部状态栏 -->
  <rect width="390" height="44" fill="white" />
  <text x="24" y="24" font-family="sans-serif" font-size="14" font-weight="600" fill="#333333" dominant-baseline="middle">9:41</text>
  <text x="366" y="24" font-family="sans-serif" font-size="14" font-weight="600" fill="#333333" text-anchor="end" dominant-baseline="middle">100%</text>
  
  <!-- 顶部导航栏 -->
  <rect y="44" width="390" height="56" fill="white" />
  <text x="24" y="72" font-family="sans-serif" font-size="20" font-weight="700" fill="#333333" dominant-baseline="middle">统计</text>
  <circle cx="354" cy="72" r="18" fill="#F5F7FA" />
  <path d="M348 72 L360 72 M354 66 L354 78" stroke="#4A6CF7" stroke-width="2" stroke-linecap="round" />
  
  <!-- 时间范围选择 -->
  <rect x="24" y="120" width="342" height="48" rx="24" fill="white" />
  <rect x="24" y="120" width="114" height="48" rx="24" fill="#4A6CF7" />
  <text x="81" y="148" font-family="sans-serif" font-size="16" font-weight="600" fill="white" text-anchor="middle">月</text>
  <text x="195" y="148" font-family="sans-serif" font-size="16" font-weight="600" fill="#666666" text-anchor="middle">季</text>
  <text x="309" y="148" font-family="sans-serif" font-size="16" font-weight="600" fill="#666666" text-anchor="middle">年</text>
  
  <!-- 日期选择器 -->
  <rect x="24" y="188" width="342" height="56" rx="12" fill="white" />
  <path d="M48 216 L56 208 L64 216" stroke="#666666" stroke-width="2" stroke-linecap="round" stroke-linejoin="round" />
  <text x="195" y="224" font-family="sans-serif" font-size="18" font-weight="600" fill="#333333" text-anchor="middle">2025年5月</text>
  <path d="M326 216 L334 208 L342 216" stroke="#666666" stroke-width="2" stroke-linecap="round" stroke-linejoin="round" />
  
  <!-- 收支概览卡片 -->
  <g filter="url(#filter0_d)">
    <rect x="24" y="264" width="342" height="120" rx="16" fill="white" />
    <text x="48" y="292" font-family="sans-serif" font-size="16" font-weight="600" fill="#333333">收支概览</text>
    
    <!-- 收入 -->
    <text x="48" y="324" font-family="sans-serif" font-size="14" font-weight="400" fill="#666666">收入</text>
    <text x="48" y="352" font-family="sans-serif" font-size="20" font-weight="700" fill="#2ED573">¥12,580.00</text>
    
    <!-- 支出 -->
    <text x="220" y="324" font-family="sans-serif" font-size="14" font-weight="400" fill="#666666">支出</text>
    <text x="220" y="352" font-family="sans-serif" font-size="20" font-weight="700" fill="#FF6B6B">¥8,320.50</text>
    
    <!-- 结余 -->
    <rect x="48" y="372" width="294" height="1" fill="#EBEEF5" />
    <text x="48" y="392" font-family="sans-serif" font-size="14" font-weight="400" fill="#666666">结余</text>
    <text x="318" y="392" font-family="sans-serif" font-size="16" font-weight="700" fill="#4A6CF7" text-anchor="end">¥4,259.50</text>
  </g>
  
  <!-- 支出分析标题 -->
  <text x="24" y="412" font-family="sans-serif" font-size="16" font-weight="600" fill="#333333">支出分析</text>
  
  <!-- 支出分析图表 -->
  <g filter="url(#filter1_d)">
    <rect x="24" y="424" width="342" height="240" rx="16" fill="white" />
    
    <!-- 饼图 -->
    <circle cx="130" cy="544" r="80" fill="none" stroke="#EBEEF5" stroke-width="1" />
    
    <!-- 饼图扇形 - 餐饮 -->
    <path d="M130 464 L130 544 L210 544" fill="#4A6CF7" />
    <path d="M130 464 A80 80 0 0 1 210 544 L130 544 Z" fill="#4A6CF7" />
    
    <!-- 饼图扇形 - 购物 -->
    <path d="M130 544 L210 544 L130 624" fill="#FF6B6B" />
    <path d="M210 544 A80 80 0 0 1 130 624 L130 544 Z" fill="#FF6B6B" />
    
    <!-- 饼图扇形 - 交通 -->
    <path d="M130 544 L130 624 L50 544" fill="#2ED573" />
    <path d="M130 624 A80 80 0 0 1 50 544 L130 544 Z" fill="#2ED573" />
    
    <!-- 饼图扇形 - 其他 -->
    <path d="M130 544 L50 544 L130 464" fill="#FFBA49" />
    <path d="M50 544 A80 80 0 0 1 130 464 L130 544 Z" fill="#FFBA49" />
    
    <!-- 图例 -->
    <rect x="240" y="464" width="16" height="16" rx="4" fill="#4A6CF7" />
    <text x="264" y="478" font-family="sans-serif" font-size="14" font-weight="400" fill="#333333">餐饮 35%</text>
    
    <rect x="240" y="494" width="16" height="16" rx="4" fill="#FF6B6B" />
    <text x="264" y="508" font-family="sans-serif" font-size="14" font-weight="400" fill="#333333">购物 25%</text>
    
    <rect x="240" y="524" width="16" height="16" rx="4" fill="#2ED573" />
    <text x="264" y="538" font-family="sans-serif" font-size="14" font-weight="400" fill="#333333">交通 20%</text>
    
    <rect x="240" y="554" width="16" height="16" rx="4" fill="#FFBA49" />
    <text x="264" y="568" font-family="sans-serif" font-size="14" font-weight="400" fill="#333333">其他 20%</text>
    
    <!-- 总支出 -->
    <text x="130" y="534" font-family="sans-serif" font-size="14" font-weight="400" fill="white" text-anchor="middle">总支出</text>
    <text x="130" y="558" font-family="sans-serif" font-size="16" font-weight="700" fill="white" text-anchor="middle">¥8,320.50</text>
  </g>
  
  <!-- 收支趋势标题 -->
  <text x="24" y="692" font-family="sans-serif" font-size="16" font-weight="600" fill="#333333">收支趋势</text>
  <text x="366" y="692" font-family="sans-serif" font-size="14" font-weight="400" fill="#4A6CF7" text-anchor="end">查看详情</text>
  
  <!-- 收支趋势图表 -->
  <g filter="url(#filter2_d)">
    <rect x="24" y="704" width="342" height="160" rx="16" fill="white" />
    
    <!-- 坐标轴 -->
    <line x1="48" y1="824" x2="318" y2="824" stroke="#EBEEF5" stroke-width="1" />
    <line x1="48" y1="824" x2="48" y2="724" stroke="#EBEEF5" stroke-width="1" />
    
    <!-- 折线图 - 收入 -->
    <path d="M48 764 L94 744 L140 774 L186 734 L232 754 L278 724 L324 744" stroke="#2ED573" stroke-width="2" fill="none" stroke-linecap="round" stroke-linejoin="round" />
    <circle cx="48" cy="764" r="4" fill="#2ED573" />
    <circle cx="94" cy="744" r="4" fill="#2ED573" />
    <circle cx="140" cy="774" r="4" fill="#2ED573" />
    <circle cx="186" cy="734" r="4" fill="#2ED573" />
    <circle cx="232" cy="754" r="4" fill="#2ED573" />
    <circle cx="278" cy="724" r="4" fill="#2ED573" />
    <circle cx="324" cy="744" r="4" fill="#2ED573" />
    
    <!-- 折线图 - 支出 -->
    <path d="M48 784 L94 794 L140 774 L186 804 L232 784 L278 794 L324 774" stroke="#FF6B6B" stroke-width="2" fill="none" stroke-linecap="round" stroke-linejoin="round" />
    <circle cx="48" cy="784" r="4" fill="#FF6B6B" />
    <circle cx="94" cy="794" r="4" fill="#FF6B6B" />
    <circle cx="140" cy="774" r="4" fill="#FF6B6B" />
    <circle cx="186" cy="804" r="4" fill="#FF6B6B" />
    <circle cx="232" cy="784" r="4" fill="#FF6B6B" />
    <circle cx="278" cy="794" r="4" fill="#FF6B6B" />
    <circle cx="324" cy="774" r="4" fill="#FF6B6B" />
    
    <!-- X轴标签 -->
    <text x="48" y="844" font-family="sans-serif" font-size="12" font-weight="400" fill="#666666" text-anchor="middle">1日</text>
    <text x="94" y="844" font-family="sans-serif" font-size="12" font-weight="400" fill="#666666" text-anchor="middle">5日</text>
    <text x="140" y="844" font-family="sans-serif" font-size="12" font-weight="400" fill="#666666" text-anchor="middle">10日</text>
    <text x="186" y="844" font-family="sans-serif" font-size="12" font-weight="400" fill="#666666" text-anchor="middle">15日</text>
    <text x="232" y="844" font-family="sans-serif" font-size="12" font-weight="400" fill="#666666" text-anchor="middle">20日</text>
    <text x="278" y="844" font-family="sans-serif" font-size="12" font-weight="400" fill="#666666" text-anchor="middle">25日</text>
    <text x="324" y="844" font-family="sans-serif" font-size="12" font-weight="400" fill="#666666" text-anchor="middle">30日</text>
  </g>
  
  <!-- 底部导航栏 -->
  <rect y="884" width="390" height="60" fill="white" />
  <line x1="0" y1="884" x2="390" y2="884" stroke="#EBEEF5" stroke-width="1" />
  
  <!-- 首页图标 -->
  <circle cx="60" cy="914" r="20" fill="#F5F7FA" />
  <path d="M50 914 L70 914 M60 904 L60 924" stroke="#666666" stroke-width="2" stroke-linecap="round" />
  <text x="60" y="934" font-family="sans-serif" font-size="12" font-weight="400" fill="#666666" text-anchor="middle">首页</text>
  
  <!-- 记账图标 -->
  <circle cx="150" cy="914" r="20" fill="#F5F7FA" />
  <path d="M144 914 L156 914 M150 908 L150 920" stroke="#666666" stroke-width="2" stroke-linecap="round" />
  <text x="150" y="934" font-family="sans-serif" font-size="12" font-weight="400" fill="#666666" text-anchor="middle">记账</text>
  
  <!-- 报表图标 (当前选中) -->
  <rect x="230" y="904" width="20" height="20" rx="4" fill="#F5F7FA" />
  <path d="M234 914 L238 910 L242 914 L246 908" stroke="#4A6CF7" stroke-width="2" stroke-linecap="round" stroke-linejoin="round" />
  <text x="240" y="934" font-family="sans-serif" font-size="12" font-weight="500" fill="#4A6CF7" text-anchor="middle">报表</text>
  <circle cx="240" cy="914" r="4" fill="#4A6CF7" />
  
  <!-- 我的图标 -->
  <circle cx="330" cy="914" r="10" stroke="#666666" stroke-width="2" />
  <circle cx="330" cy="910" r="3" fill="#666666" />
  <path d="M322 922 C322 922, 330 918, 338 922" stroke="#666666" stroke-width="2" stroke-linecap="round" />
  <text x="330" y="934" font-family="sans-serif" font-size="12" font-weight="400" fill="#666666" text-anchor="middle">我的</text>
  
  <!-- 滤镜定义 -->
  <defs>
    <filter id="filter0_d" x="20" y="262" width="350" height="128" filterUnits="userSpaceOnUse" color-interpolation-filters="sRGB">
      <feFlood flood-opacity="0" result="BackgroundImageFix"/>
      <feColorMatrix in="SourceAlpha" type="matrix" values="0 0 0 0 0 0 0 0 0 0 0 0 0 0 0 0 0 0 127 0"/>
      <feOffset dy="2"/>
      <feGaussianBlur stdDeviation="2"/>
      <feColorMatrix type="matrix" values="0 0 0 0 0 0 0 0 0 0 0 0 0 0 0 0 0 0 0.1 0"/>
      <feBlend mode="normal" in2="BackgroundImageFix" result="effect1_dropShadow"/>
      <feBlend mode="normal" in="SourceGraphic" in2="effect1_dropShadow" result="shape"/>
    </filter>
    <filter id="filter1_d" x="20" y="422" width="350" height="248" filterUnits="userSpaceOnUse" color-interpolation-filters="sRGB">
      <feFlood flood-opacity="0" result="BackgroundImageFix"/>
      <feColorMatrix in="SourceAlpha" type="matrix" values="0 0 0 0 0 0 0 0 0 0 0 0 0 0 0 0 0 0 127 0"/>
      <feOffset dy="2"/>
      <feGaussianBlur stdDeviation="2"/>
      <feColorMatrix type="matrix" values="0 0 0 0 0 0 0 0 0 0 0 0 0 0 0 0 0 0 0.1 0"/>
      <feBlend mode="normal" in2="BackgroundImageFix" result="effect1_dropShadow"/>
      <feBlend mode="normal" in="SourceGraphic" in2="effect1_dropShadow" result="shape"/>
    </filter>
    <filter id="filter2_d" x="20" y="702" width="350" height="168" filterUnits="userSpaceOnUse" color-interpolation-filters="sRGB">
      <feFlood flood-opacity="0" result="BackgroundImageFix"/>
      <feColorMatrix in="SourceAlpha" type="matrix" values="0 0 0 0 0 0 0 0 0 0 0 0 0 0 0 0 0 0 127 0"/>
      <feOffset dy="2"/>
      <feGaussianBlur stdDeviation="2"/>
      <feColorMatrix type="matrix" values="0 0 0 0 0 0 0 0 0 0 0 0 0 0 0 0 0 0 0.1 0"/>
      <feBlend mode="normal" in2="BackgroundImageFix" result="effect1_dropShadow"/>
      <feBlend mode="normal" in="SourceGraphic" in2="effect1_dropShadow" result="shape"/>
    </filter>
  </defs>
</svg>